# xmcd
#
# Track frame offsets: 
#        150
#        15002
#        29038
#        46888
#        65409
#        82494
#        92706
#        110209
#        126138
#        142629
#        160695
#        170739
#        189697
#
# Disc length: 2792 seconds
#
# Revision: 6
# Processed by: cddbd v1.5.1PL2 Copyright (c) Steve Scherf et al.
# Submitted via: ExactAudioCopy v0.95b4
#
DISCID=ae0ae60d
DTITLE=Nouvelle Vague - Nouvelle Vague
DYEAR=2004
DGENRE=New Wave
TTITLE0=Love Will Tear Us Apart [Joy Division] - Eloisia
TTITLE1=Just Can't Get Enough [Depeche Mode] - Eloisia
TTITLE2=In a Manner of Speaking [Tuxedomoon] - Camille
TTITLE3=Guns of Brixton [The Clash] - Camille
TTITLE4=This is Not a Love Song [PiL] - Melanie Pain
TTITLE5=Too Drunk to Fuck [Dead Kennedys] - Camille
TTITLE6=Marian [The Sisters of Mercy] - Alex
TTITLE7=Making Plans for Nigel [XTC] - Camille
TTITLE8=A Forest [The Cure] - Marina Celeste
TTITLE9=I Melt With You [Modern English] - Silja
TTITLE10=Teenage Kicks [The Undertones] - Melanie Pain
TTITLE11=Psyche [Killing Joke] - Sir Alice
TTITLE12=Friday Night, Saturday Morning [The Specials] - Daniella D'Am
TTITLE12=brosio
EXTD=YEAR: 2004
EXTT0=Joy Division
EXTT1=Depeche Mode
EXTT2=Tuxedomoon
EXTT3=The Clash
EXTT4=PiL
EXTT5=Dead Kennedys
EXTT6=The Sisters of Mercy
EXTT7=XTC
EXTT8=The Cure
EXTT9=Modern English
EXTT10=The Undertones
EXTT11=Killing Joke
EXTT12=The Specials
PLAYORDER=
